# xmcd
#
# Track frame offsets:
#	150
#	18097
#	31825
#	48757
#	63732
#	78124
#	92896
#	107454
#	117971
#	151544
#	166533
#	182975
#	195002
#	209323
#	226902
#	239118
#	253238
#	277006
#	293576
#
# Disc length: 4114 seconds
#
# Revision: 0
# Processed by: cddbd v1.5.2PL0 Copyright (c) Steve Scherf et al.
# Submitted via: EasyCDDAExtractor 16.0.8.1
#
DISCID=ed101013
DTITLE=LOUBET - AO VIVO EM CAMPO GRANDE
DYEAR=2016
DGENRE=
TTITLE0=TA RODADA
TTITLE1=INSANA
TTITLE2=ESSENCIA
TTITLE3=PENSE BEM
TTITLE4=ALMA GEMEA
TTITLE5=MAIS UMA VEZ
TTITLE6=BARBARA
TTITLE7=PODE APOSTAR
TTITLE8=POUT-POURRI 1
TTITLE9=SO QUEM AMA ENTENDE (CONRADO)
TTITLE10=MIL ANOS
TTITLE11=DOIS CAMINHOS
TTITLE12=TE SEGUIR
TTITLE13=PACIENCIA
TTITLE14=FUNDO DE COPO
TTITLE15=POUT-POURRI 2
TTITLE16=POUTI-POURRI 3
TTITLE17=ERA PRA SER EU
TTITLE18=SEM QUERER
EXTD=
EXTT0=
EXTT1=
EXTT2=
EXTT3=
EXTT4=
EXTT5=
EXTT6=
EXTT7=
EXTT8=
EXTT9=
EXTT10=
EXTT11=
EXTT12=
EXTT13=
EXTT14=
EXTT15=
EXTT16=
EXTT17=
EXTT18=
PLAYORDER=
